<?xml version="1.0" standalone="no"?><!DOCTYPE svg PUBLIC "-//W3C//DTD SVG 1.1//EN" "http://www.w3.org/Graphics/SVG/1.1/DTD/svg11.dtd"><svg class="icon" width="200px" height="200.00px" viewBox="0 0 1024 1024" version="1.1" xmlns="http://www.w3.org/2000/svg"><path d="M332.8 285.866667l85.333333-140.8c23.466667-40.533333 44.8-64 61.866667-70.4 21.333333-8.533333 44.8-8.533333 66.133333 0 17.066667 6.4 38.4 29.866667 61.866667 70.4l85.333333 140.8c2.133333 4.266667 4.266667 8.533333 6.4 8.533333 2.133333 0 4.266667 2.133333 10.666667 2.133333l160 36.266667c44.8 10.666667 74.666667 23.466667 87.466667 36.266667 14.933333 17.066667 21.333333 38.4 21.333333 61.866666-2.133333 19.2-17.066667 44.8-49.066667 81.066667l-106.666666 123.733333c-4.266667 4.266667-6.4 6.4-6.4 8.533334v10.666666l14.933333 164.266667c4.266667 46.933333 2.133333 78.933333-8.533333 93.866667-12.8 21.333333-29.866667 34.133333-53.333334 38.4-17.066667 4.266667-49.066667-2.133333-91.733333-21.333334l-151.466667-64c-4.266667-2.133333-8.533333-4.266667-10.666666-4.266666-2.133333 0-4.266667 2.133333-10.666667 4.266666l-151.466667 64c-42.666667 19.2-74.666667 25.6-91.733333 21.333334-23.466667-6.4-40.533333-19.2-53.333333-38.4-10.666667-14.933333-12.8-46.933333-8.533334-93.866667l14.933334-164.266667v-10.666666c0-2.133333-4.266667-4.266667-6.4-8.533334l-106.666667-123.733333c-29.866667-36.266667-46.933333-61.866667-49.066667-81.066667-2.133333-23.466667 4.266667-44.8 21.333334-61.866666 12.8-14.933333 40.533333-25.6 87.466666-36.266667l160-36.266667c6.4-2.133333 8.533333-2.133333 10.666667-2.133333-4.266667 0-4.266667-4.266667 0-8.533333z m72.533333 44.8c-6.4 12.8-12.8 21.333333-19.2 25.6-6.4 6.4-12.8 12.8-21.333333 14.933333-6.4 2.133333-17.066667 6.4-29.866667 8.533333l-160 36.266667c-19.2 4.266667-32 8.533333-38.4 10.666667h-2.133333l2.133333 2.133333c4.266667 4.266667 12.8 14.933333 25.6 29.866667l106.666667 123.733333c8.533333 10.666667 14.933333 19.2 19.2 25.6 4.266667 8.533333 6.4 17.066667 8.533333 25.6v32l-14.933333 164.266667c-2.133333 21.333333-2.133333 34.133333-2.133333 40.533333l-2.133334 2.133333 2.133334-2.133333c6.4-2.133333 19.2-6.4 36.266666-14.933333l151.466667-64c12.8-6.4 23.466667-8.533333 29.866667-10.666667 8.533333-2.133333 17.066667-2.133333 27.733333 0 6.4 2.133333 17.066667 4.266667 29.866667 10.666667l151.466666 64c19.2 8.533333 32 12.8 36.266667 14.933333l2.133333 2.133333-2.133333-2.133333c0-6.4 0-19.2-2.133333-40.533333l-14.933334-164.266667c-2.133333-14.933333-2.133333-23.466667 0-32 2.133333-8.533333 4.266667-17.066667 8.533334-25.6 2.133333-6.4 8.533333-14.933333 19.2-25.6l106.666666-123.733333c12.8-14.933333 21.333333-25.6 25.6-29.866667l2.133334-2.133333h-2.133334c-6.4-2.133333-19.2-4.266667-38.4-10.666667l-160-36.266667c-12.8-2.133333-23.466667-6.4-29.866666-8.533333-8.533333-4.266667-14.933333-8.533333-21.333334-14.933333-4.266667-4.266667-10.666667-12.8-19.2-25.6l-85.333333-140.8c-10.666667-17.066667-17.066667-27.733333-21.333333-34.133334v-2.133333 2.133333c-4.266667 4.266667-10.666667 17.066667-21.333334 34.133334L405.333333 330.666667z" /></svg>