<?xml version="1.0" standalone="no"?><!DOCTYPE svg PUBLIC "-//W3C//DTD SVG 1.1//EN" "http://www.w3.org/Graphics/SVG/1.1/DTD/svg11.dtd"><svg class="icon" width="200px" height="200.00px" viewBox="0 0 1024 1024" version="1.1" xmlns="http://www.w3.org/2000/svg"><path d="M904.37 400.7h-7.32c-19.87 0-38.24-10.6-48.18-27.81l-10.19-17.65a361.616 361.616 0 0 0-26.55-45.99l-9.79-16.95a55.617 55.617 0 0 1 0-55.63l4.32-7.49c15.36-26.61 6.25-60.63-20.36-75.99l-104.09-60.1c-26.61-15.36-60.63-6.25-75.99 20.36l-6.34 10.98a55.631 55.631 0 0 1-48.18 27.81H544c-10.11-0.85-20.34-1.29-30.67-1.29s-20.56 0.44-30.67 1.29h-13.98c-19.9 0-38.28-10.63-48.21-27.87l-6-10.42c-15.43-26.8-49.76-35.88-76.42-20.19l-104.49 61.48c-26.32 15.49-35.24 49.31-19.96 75.76l7.97 13.8a55.632 55.632 0 0 1 2.05 51.7 360.688 360.688 0 0 0-42.68 74.29l-1.21 2.09a55.631 55.631 0 0 1-48.18 27.81H119.6C88.91 400.7 64 425.6 64 456.32v120.19c0 30.72 24.91 55.63 55.63 55.63h18.12c16.7 0 32.33 7.49 42.79 20.08a360.026 360.026 0 0 0 45.13 77.96 55.603 55.603 0 0 1-4.34 48.63l-7.8 12.91c-16.11 26.67-7.18 61.36 19.8 76.94l104.11 60.11c26.22 15.14 59.73 6.53 75.41-19.38l7.66-12.66a55.61 55.61 0 0 1 45.37-26.78 364.56 364.56 0 0 0 47.48 3.1c14.96 0 29.71-0.92 44.19-2.68a55.62 55.62 0 0 1 41.01 27.35l7.41 12.83c15.36 26.61 49.38 35.72 75.99 20.36l104.15-60.13c26.58-15.35 35.71-49.33 20.4-75.93l-4.81-8.35a55.65 55.65 0 0 1 0.03-55.57l4.35-7.53a360.714 360.714 0 0 0 36.98-64.03 55.628 55.628 0 0 1 47.82-27.23h13.49c30.72 0 55.63-24.91 55.63-55.63V456.32c0-30.72-24.91-55.62-55.63-55.62zM512 663.49c-83.67 0-151.49-67.83-151.49-151.49S428.33 360.51 512 360.51 663.49 428.33 663.49 512 595.67 663.49 512 663.49z" /></svg>