<?xml version="1.0" standalone="no"?><!DOCTYPE svg PUBLIC "-//W3C//DTD SVG 1.1//EN" "http://www.w3.org/Graphics/SVG/1.1/DTD/svg11.dtd"><svg class="icon" width="200px" height="200.00px" viewBox="0 0 1024 1024" version="1.1" xmlns="http://www.w3.org/2000/svg"><path d="M403.77 179.45s-78.13-35.08-148.99 42.65L117.73 358.92s-28.75 43.41 21.55 85.61c13.12 13.24 26.24 26.49 39.36 39.73 22.86 23.07 46.32 54.86 83.39 48.32l2.12 4.01v270.23s10.8 40.59 52.99 45.63h388.2s49.07 1.15 54.11-63.06V537.87c0.01-7.91 28.84-7.17 34.68-9.72 27.79-12.17 49.06-41.38 70.19-62.52 9.81-9.81 19.61-19.62 29.42-29.43 3.93-3.93 11.02-8.72 13.68-13.68 0 0 23.09-43.11-14.51-77.04L748 203.3s-47.24-49.99-137.58-20.64c0 0-85.87 66.5-206.65-3.21z" /></svg>