<?xml version="1.0" standalone="no"?><!DOCTYPE svg PUBLIC "-//W3C//DTD SVG 1.1//EN" "http://www.w3.org/Graphics/SVG/1.1/DTD/svg11.dtd"><svg t="1742180447505" class="icon" viewBox="0 0 1024 1024" version="1.1" xmlns="http://www.w3.org/2000/svg" p-id="1775" xmlns:xlink="http://www.w3.org/1999/xlink" width="200" height="200"><path d="M942.5 449.6c-12.3-29.7-33.1-72.7-61.9-108.6a411 411 0 0 0-138.2-111.9C676.1 195.8 598.5 179 511.9 179s-164.1 16.9-230.4 50.2A413.64 413.64 0 0 0 143.3 341c-28.8 36-49.5 79-61.8 108.7-12 28.8-20.5 56.5-20.8 62.1v0.4c0.3 5.6 8.9 33.3 20.9 62.2 12.4 29.7 33.1 72.7 61.8 108.5a411 411 0 0 0 138.2 111.9c66.7 33.4 144.2 50.3 230.4 50.3s163.8-16.9 230.4-50.3A413.36 413.36 0 0 0 880.6 683c28.8-35.9 49.6-78.9 61.9-108.6 12-28.8 20.6-56.5 20.9-62.1v-0.6c-0.3-5.6-8.9-33.3-20.9-62.1zM824.8 637.7l-0.5 0.5A341.36 341.36 0 0 1 710 730.8c-56.5 28.3-123.3 42.7-198.4 42.7s-141.9-14.4-198.4-42.7a339.76 339.76 0 0 1-114.3-92.7c-36.8-45.8-59-108.8-64.7-126.3 5.7-17.4 27.9-80.3 64.7-126.3a341.77 341.77 0 0 1 114.4-92.6c56.6-28.3 123.4-42.6 198.6-42.6 75.5 0 142.2 14.3 198.3 42.6a339.76 339.76 0 0 1 114.3 92.7c36.8 46 59 108.9 64.7 126.3-5.7 17.4-27.8 80.2-64.4 125.8z" p-id="1776"></path><path d="M511.9 337.8c-95.6 0-173.3 77.8-173.3 173.3s77.8 173.3 173.3 173.3 173.3-77.8 173.3-173.3-77.7-173.3-173.3-173.3zM584 583.2a101.88 101.88 0 1 1 29.9-72.1 101.29 101.29 0 0 1-29.9 72.1z" p-id="1777"></path></svg>